<?xml version="1.0" encoding="utf-8" ?>	<!-- Generator: Assembly 2.2 - http://assemblyapp.co -->	<svg version="1.1" xmlns="http://www.w3.org/2000/svg" xmlns:xlink="http://www.w3.org/1999/xlink" width="2048.00" height="1365.33" viewBox="0 0 2048.0 1365.3333333333335">		<g id="document" transform="matrix(1,0,0,1,1024.0,682.6666666666667)">			<path d="M-464.523,181.266 C-464.523,176.939 -468.232,174.776 -475.649,174.776 C-502.847,174.776 -520.309,173.848 -528.035,171.994 C-535.762,170.14 -540.553,163.34 -542.407,151.596 C-544.261,139.851 -545.188,111.727 -545.188,67.2214 L-545.188,-191.465 C-553.842,-190.847 -576.713,-190.538 -613.801,-190.538 C-641.616,-190.538 -657.997,-190.847 -662.942,-191.465 L-671.287,-191.465 C-684.267,-191.465 -690.758,-189.611 -690.758,-185.902 C-690.758,-179.721 -677.777,-176.939 -651.815,-177.557 C-641.307,-177.557 -634.353,-176.784 -630.954,-175.239 C-627.554,-173.694 -625.545,-168.285 -624.927,-159.013 L-623.073,-128.416 C-622.454,-117.908 -622.145,-102.146 -622.145,-81.1292 L-622.145,62.5854 C-622.145,105.854 -627.709,137.379 -638.835,157.159 C-654.288,184.357 -678.395,197.955 -711.156,197.955 C-741.444,197.955 -761.533,185.902 -771.423,161.795 C-777.604,146.342 -780.695,114.817 -780.695,67.2214 L-780.695,-191.465 C-799.239,-189.611 -819.328,-188.683 -840.963,-188.683 C-842.817,-188.683 -848.998,-188.992 -859.506,-189.611 C-880.523,-190.847 -896.594,-191.465 -907.72,-191.465 C-918.228,-191.465 -923.483,-189.302 -923.483,-184.975 C-923.483,-178.793 -915.138,-176.321 -898.448,-177.557 L-886.395,-178.484 C-872.178,-177.866 -863.833,-175.703 -861.361,-171.994 C-858.888,-168.285 -857.652,-155.614 -857.652,-133.979 L-857.652,78.3477 C-857.652,119.144 -856.879,144.178 -855.334,153.45 C-853.789,162.722 -848.998,172.921 -840.963,184.047 C-821.182,210.627 -788.422,223.917 -742.68,223.917 C-691.376,223.917 -651.506,203.518 -623.073,162.722 L-624,214.645 C-624,219.59 -622.145,222.062 -618.437,222.062 C-616.582,222.062 -614.419,221.444 -611.946,220.208 C-575.477,202.282 -533.135,191.774 -484.921,188.683 C-471.322,188.065 -464.523,185.593 -464.523,181.266 Z M-49.1411,6.95393 C-49.1411,-54.2407 -66.2942,-104.464 -100.6,-143.715 C-134.906,-182.966 -178.948,-202.591 -232.725,-202.591 C-275.376,-202.591 -308.137,-186.211 -331.007,-153.45 C-331.625,-176.939 -332.707,-191.001 -334.252,-195.637 C-335.798,-200.273 -339.043,-202.591 -343.988,-202.591 C-348.315,-202.591 -354.496,-200.119 -362.532,-195.174 C-390.348,-178.484 -421.254,-170.449 -455.251,-171.067 C-468.85,-171.067 -475.649,-168.285 -475.649,-162.722 C-475.649,-158.395 -472.868,-156.232 -467.304,-156.232 C-466.068,-156.232 -453.087,-155.614 -428.362,-154.377 C-411.673,-155.614 -403.328,-147.578 -403.328,-130.27 L-403.328,331.471 C-403.328,384.63 -403.637,413.064 -404.255,416.772 C-405.492,424.808 -415.073,428.826 -432.998,428.826 L-460.814,428.826 C-468.232,428.826 -471.94,431.608 -471.94,437.171 C-471.94,441.498 -462.978,443.661 -445.052,443.661 L-395.911,443.661 C-387.257,443.661 -374.276,443.661 -356.969,443.661 C-340.279,443.043 -330.08,442.734 -326.371,442.734 C-319.572,442.734 -311.536,443.043 -302.264,443.661 C-292.374,443.661 -285.266,443.661 -280.939,443.661 L-263.322,443.661 C-255.287,443.661 -251.269,441.498 -251.269,437.171 C-251.269,431.608 -254.978,428.826 -262.395,428.826 C-288.975,428.826 -306.9,427.899 -316.172,426.044 C-321.117,424.19 -324.053,422.027 -324.981,419.554 C-325.908,417.082 -326.371,409.046 -326.371,395.447 L-326.371,179.412 C-304.119,209.082 -272.594,223.917 -231.798,223.917 C-179.875,223.917 -136.452,203.209 -101.527,161.795 C-66.6032,120.38 -49.1411,68.7667 -49.1411,6.95393 Z M-131.661,7.88113 C-131.661,72.7845 -144.024,125.943 -168.749,167.358 C-184.82,194.556 -208.927,208.154 -241.07,208.154 C-269.504,208.154 -292.683,195.483 -310.609,170.14 C-317.408,160.868 -321.426,151.75 -322.663,142.787 C-323.899,133.825 -324.826,107.4 -325.444,63.5126 C-327.299,-23.6434 -327.608,-80.8202 -326.371,-108.018 C-325.135,-129.652 -316.79,-148.042 -301.337,-163.186 C-285.884,-178.33 -267.34,-185.902 -245.706,-185.902 C-204.291,-185.902 -173.694,-162.413 -153.914,-115.435 C-139.079,-81.4383 -131.661,-40.3328 -131.661,7.88113 Z M189.147,206.3 C189.147,201.973 182.039,199.81 167.822,199.81 C145.569,199.192 134.134,198.573 133.516,197.955 C129.807,196.719 127.643,194.401 127.025,191.001 C126.407,187.602 126.098,176.63 126.098,158.086 L125.171,-296.238 L126.098,-362.068 C126.716,-398.538 124.553,-425.735 119.608,-443.661 L112.19,-440.879 L92.7191,-431.608 C67.3759,-419.863 39.8692,-413.064 10.1991,-411.209 C-5.25408,-410.591 -12.9807,-407.81 -12.9807,-402.865 C-12.9807,-397.301 -8.65379,-394.52 -1.37252e-13,-394.52 L25.9614,-395.447 L33.3789,-395.447 C41.4145,-395.447 46.3596,-392.975 48.2139,-388.03 C49.4502,-386.175 50.0683,-375.049 50.0683,-354.651 L50.0683,117.29 C50.0683,161.795 49.7593,185.902 49.1411,189.611 C49.1411,197.028 40.4874,200.737 23.1798,200.737 L-0.927191,200.737 C-7.72659,200.737 -11.1263,202.9 -11.1263,207.227 C-11.1263,213.409 -6.49034,216.19 2.78157,215.572 C6.49034,215.572 10.1991,215.263 13.9079,214.645 C58.4131,212.79 83.1382,211.863 88.0832,211.863 L116.826,212.79 C148.351,214.027 164.731,214.645 165.967,214.645 L177.094,214.645 C185.129,214.645 189.147,211.863 189.147,206.3 Z M614.728,12.5171 C614.728,-48.6775 596.029,-99.8276 558.633,-140.933 C521.236,-182.039 474.722,-202.591 419.09,-202.591 C364.077,-202.591 318.181,-182.193 281.403,-141.397 C244.624,-100.6 226.235,-49.2957 226.235,12.5171 C226.235,72.4755 245.088,122.698 282.793,163.186 C320.499,203.673 367.477,223.917 423.726,223.917 C478.122,223.917 523.554,203.673 560.024,163.186 C596.493,122.698 614.728,72.4755 614.728,12.5171 Z M530.353,11.5899 C530.353,82.0564 517.373,137.688 491.411,178.484 C477.813,200.119 456.796,210.936 428.362,210.936 C391.275,210.936 362.377,193.474 341.67,158.55 C320.963,123.626 310.609,74.948 310.609,12.5171 C310.609,-50.5319 320.345,-99.8276 339.816,-135.37 C359.287,-170.912 386.33,-188.683 420.945,-188.683 C457.414,-188.683 483.376,-174.776 498.829,-146.96 C519.845,-109.254 530.353,-56.4041 530.353,11.5899 Z M923.483,158.086 C923.483,154.995 921.319,153.45 916.992,153.45 C913.902,153.45 911.12,154.995 908.647,158.086 C883.304,180.957 860.434,192.392 840.035,192.392 C815.928,192.392 801.711,181.42 797.385,159.477 C793.058,137.533 790.894,83.2927 790.894,-3.24517 L790.894,-174.776 C807.584,-174.157 820.255,-173.848 828.909,-173.848 C878.977,-173.848 904.012,-178.484 904.012,-187.756 C904.012,-193.319 901.539,-196.101 896.594,-196.101 C894.74,-196.101 892.576,-195.792 890.104,-195.174 C878.977,-192.083 856.416,-190.538 822.419,-190.538 C809.438,-190.538 800.166,-191.156 794.603,-192.392 C792.13,-199.81 790.894,-216.499 790.894,-242.461 C790.894,-249.878 791.203,-255.132 791.821,-258.223 L791.821,-261.932 C791.821,-266.258 789.658,-268.422 785.331,-268.422 C779.768,-268.422 775.132,-265.64 771.423,-260.077 C744.226,-217.426 706.52,-193.938 658.306,-189.611 C651.506,-188.992 648.107,-186.52 648.107,-182.193 C648.107,-177.866 654.906,-175.703 668.505,-175.703 L703.738,-175.703 C709.919,-175.085 713.319,-171.685 713.937,-165.504 L713.937,110.799 C713.937,159.013 718.882,188.065 728.772,197.955 C746.08,215.263 771.732,223.917 805.729,223.917 C842.199,223.917 873.723,211.863 900.303,187.756 C915.756,173.539 923.483,163.649 923.483,158.086 Z " fill="#008c9f" fill-opacity="1.00" stroke-width="8.97" stroke="#000000" stroke-linecap="square" stroke-linejoin="miter" />		</g>	</svg>